<svg width="75" height="75" xmlns="http://www.w3.org/2000/svg">
 <title>favicon</title>

 <g id="Layer_1">
  <title>Layer 1</title>
  <path id="svg_1" d="m-585.05504,-448.62306l0,0c0,-9.95601 3.07804,-18.02695 6.875,-18.02695l3.125,0l0,0l15,0l28.12499,0c1.82337,0 3.57205,1.89926 4.86136,5.27997c1.28931,3.38071 2.01364,7.96594 2.01364,12.74698l0,45.06737l0,0l0,27.04042l0,0c0,9.95601 -3.07804,18.02695 -6.875,18.02695l-28.12499,0l-19.59565,45.83834l4.59565,-45.83834l-3.125,0c-3.79696,0 -6.875,-8.07093 -6.875,-18.02695l0,0l0,-27.04042l0,0l0,-45.06737z" stroke="#000" fill="#fff"/>
  <path id="svg_2" d="m-568.23509,-367.44276l0,0c0,-6.98214 1.69292,-12.64227 3.78125,-12.64227l1.71875,0l0,0l8.25,0l15.46874,0c1.00285,0 1.96463,1.33195 2.67375,3.70284c0.70912,2.37089 1.1075,5.5865 1.1075,8.93944l0,31.60569l0,0l0,18.96341l0,0c0,6.98214 -1.69292,12.64227 -3.78125,12.64227l-15.46874,0l-10.7776,32.14637l2.52761,-32.14637l-1.71875,0c-2.08833,0 -3.78125,-5.66014 -3.78125,-12.64227l0,0l0,-18.96341l0,0l0,-31.60569l-0.00001,-0.00001z" stroke="#000" fill="#fff"/>
  <path id="svg_3" d="m-583.04001,-259.04618l0,0c0,-0.90509 4.82227,-1.63881 10.77083,-1.63881l4.89583,0l0,0l23.5,0l44.06248,0c2.85661,0 5.59621,0.17266 7.61614,0.48c2.01991,0.30734 3.1547,0.72418 3.1547,1.15882l0,4.09703l0,0l0,2.45822l0,0c0,0.90509 -4.82226,1.63881 -10.77083,1.63881l-44.06248,0l-30.69985,4.16712l7.19985,-4.16712l-4.89583,0c-5.94856,0 -10.77083,-0.73372 -10.77083,-1.63881l0,0l0,-2.45822l0,0l0,-4.09703l-0.00001,-0.00001z" stroke="#000" fill="#fff"/>
  <path fill="#D2691E" d="m2.61498,10.17701l0,0c0,-4.46081 3.59104,-8.07701 8.02083,-8.07701l3.64583,0l0,0l17.5,0l32.81249,0c2.12727,0 4.16739,0.85097 5.67159,2.3657c1.50419,1.51474 2.34924,3.56915 2.34924,5.71131l0,20.19252l0,0l0,12.11551l0,0c0,4.46081 -3.59104,8.07701 -8.02083,8.07701l-32.81249,0l-22.86159,20.53796l5.36159,-20.53796l-3.64583,0c-4.42978,0 -8.02083,-3.6162 -8.02083,-8.07701l0,0l0,-12.11551l0,0l0,-20.19252z" id="svg_4" stroke="#000"/>
  <text transform="matrix(1.50652 0 0 1 -178.79 0)" stroke="#000" fill="#000000" x="8.02224" y="38" id="svg_6" font-size="24" font-family="'Cabin'" text-anchor="start" xml:space="preserve" font-weight="bold">FX</text>
  <text fill="#FFFFFF" x="8.54093" y="34.79514" id="svg_7" stroke-width="0" font-size="24" font-family="'Cabin'" text-anchor="start" xml:space="preserve" font-weight="bold" stroke="#000" transform="matrix(1.78291 0 0 1.25764 -2.85946 -7.07261)">FX</text>
 </g>
</svg>